<svg width="19" height="13" viewBox="0 0 19 13" fill="none" xmlns="http://www.w3.org/2000/svg">
<path d="M15.8089 11.97C16.4231 12.6766 17.4519 12.6767 18.0661 11.9701L18.0661 11.97C18.6446 11.3046 18.6446 10.2509 18.0661 9.5855C18.0661 9.5855 18.0661 9.5855 18.0661 9.58549L10.6286 1.02997C10.0144 0.323347 8.98559 0.323344 8.37134 1.02996C8.37134 1.02996 8.37134 1.02997 8.37133 1.02997L0.933832 9.5855L1.31118 9.91354L0.933823 9.58551C0.355394 10.2509 0.355394 11.3046 0.933823 11.97C1.54807 12.6767 2.57687 12.6767 3.19112 11.97C3.19112 11.97 3.19112 11.97 3.19113 11.97L9.49998 4.71282L15.8088 11.97C15.8088 11.97 15.8088 11.97 15.8089 11.97Z" fill="#D9D9D9" stroke="#D9D9D9"/>
</svg>
