<svg width="13" height="19" viewBox="0 0 13 19" fill="none" xmlns="http://www.w3.org/2000/svg">
<path d="M11.97 3.19115C12.6766 2.5769 12.6767 1.54812 11.9701 0.933872L11.97 0.933855C11.3046 0.355379 10.2509 0.355382 9.5855 0.933863C9.5855 0.933866 9.5855 0.933869 9.58549 0.933872L1.02997 8.37136C0.323347 8.98561 0.323344 10.0144 1.02996 10.6287C1.02996 10.6287 1.02997 10.6287 1.02997 10.6287L9.5855 18.0662L9.91354 17.6888L9.58551 18.0662C10.2509 18.6446 11.3046 18.6446 11.97 18.0662C12.6767 17.4519 12.6767 16.4231 11.97 15.8089C11.97 15.8089 11.97 15.8089 11.97 15.8089L4.71282 9.50002L11.97 3.19116C11.97 3.19115 11.97 3.19115 11.97 3.19115Z" fill="#D9D9D9" stroke="white"/>
</svg>
