<svg width="22" height="23" viewBox="0 0 22 23" fill="none" xmlns="http://www.w3.org/2000/svg">
<path d="M18.6278 21.2923L18.6467 21.3089L18.667 21.3237C19.1402 21.6698 19.7968 21.6167 20.211 21.1795C20.663 20.7024 20.663 19.9405 20.211 19.4633L19.8117 19.8416L20.211 19.4633L15.2223 14.1977C16.148 12.8696 16.6929 11.2321 16.6929 9.46429C16.6929 5.06652 13.3083 1.45 9.07143 1.45C4.83459 1.45 1.45 5.06652 1.45 9.46429C1.45 13.8621 4.83459 17.4786 9.07143 17.4786C10.747 17.4786 12.2945 16.9097 13.5494 15.9502L18.5033 21.1795L18.5203 21.1974L18.5388 21.2138L18.6278 21.2923ZM3.83571 9.46429C3.83571 6.36676 6.20746 3.90714 9.07143 3.90714C11.9354 3.90714 14.3071 6.36676 14.3071 9.46429C14.3071 12.5618 11.9354 15.0214 9.07143 15.0214C6.20746 15.0214 3.83571 12.5618 3.83571 9.46429Z" fill="#848484" stroke="#848484" stroke-width="1.1"/>
</svg>
