<svg width="19" height="20" viewBox="0 0 19 20" fill="none" xmlns="http://www.w3.org/2000/svg">
<path d="M0.0284192 6.8583C0.460826 5.52675 1.17313 4.30447 2.113 3.26863C2.27192 3.09346 2.52127 3.03103 2.74451 3.11051L4.9906 3.91016C5.59955 4.12685 6.2696 3.81097 6.48721 3.20464C6.5086 3.14501 6.52509 3.08376 6.53648 3.02158L6.96439 0.682876C7.00693 0.450349 7.18629 0.266413 7.41847 0.217195C8.09781 0.0732242 8.79434 0 9.5 0C10.2052 0 10.9013 0.0731416 11.5803 0.21693C11.8124 0.266099 11.9917 0.449919 12.0344 0.682364L12.4635 3.02148C12.5795 3.6549 13.1892 4.07475 13.8255 3.95925C13.8881 3.94788 13.9495 3.93148 14.0093 3.9102L16.2555 3.11051C16.4787 3.03103 16.728 3.09346 16.8869 3.26863C17.8268 4.30447 18.5391 5.52675 18.9716 6.8583C19.0445 7.08293 18.9741 7.3292 18.7934 7.482L16.9728 9.02103C16.48 9.43779 16.4197 10.1735 16.8382 10.6643C16.8793 10.7126 16.9244 10.7574 16.9728 10.7984L18.7934 12.3374C18.9741 12.4902 19.0445 12.7365 18.9716 12.9611C18.5391 14.2928 17.8268 15.515 16.8869 16.5508C16.728 16.7259 16.4787 16.7884 16.2555 16.7089L14.0093 15.9093C13.4005 15.6927 12.7304 16.0085 12.5128 16.6147C12.4914 16.6744 12.4749 16.7357 12.4635 16.7981L12.0344 19.1371C11.9917 19.3696 11.8124 19.5533 11.5803 19.6025C10.9013 19.7463 10.2052 19.8194 9.5 19.8194C8.79434 19.8194 8.09781 19.7463 7.41847 19.6022C7.18629 19.553 7.00693 19.3691 6.96439 19.1366L6.53649 16.798C6.42048 16.1645 5.81073 15.7447 5.17456 15.8602C5.11199 15.8716 5.05048 15.8879 4.9907 15.9093L2.74451 16.7089C2.52127 16.7884 2.27192 16.7259 2.113 16.5508C1.17313 15.515 0.460826 14.2928 0.0284192 12.9611C-0.0445242 12.7365 0.0258084 12.4902 0.206573 12.3374L2.0271 10.7984C2.52003 10.3816 2.58032 9.64591 2.16177 9.1551C2.12062 9.10684 2.07558 9.062 2.02712 9.02104L0.206573 7.482C0.0258084 7.3292 -0.0445242 7.08293 0.0284192 6.8583ZM6.6085 9.90962C6.6085 11.5064 7.90297 12.8009 9.4998 12.8009C11.0966 12.8009 12.3911 11.5064 12.3911 9.90962C12.3911 8.31279 11.0966 7.01831 9.4998 7.01831C7.90297 7.01831 6.6085 8.31279 6.6085 9.90962Z" fill="white"/>
</svg>
