<svg width="21" height="20" viewBox="0 0 21 20" fill="none" xmlns="http://www.w3.org/2000/svg">
<path d="M8.99373 0.929959C9.60987 -0.309988 11.3901 -0.309984 12.0062 0.929959L14.3405 5.62748L19.56 6.38078C20.9378 6.57959 21.4879 8.26119 20.4908 9.22636L16.714 12.8829L17.6056 18.0459C17.841 19.4087 16.4007 20.4481 15.1684 19.8047L10.5 17.367L5.83153 19.8047C4.59924 20.4481 3.15901 19.4087 3.39436 18.0459L4.28595 12.8829L0.50908 9.22636C-0.487846 8.26119 0.0622775 6.57959 1.44002 6.38078L6.6595 5.62748L8.99373 0.929959ZM10.5 2.6107L8.44462 6.74703C8.19995 7.2394 7.727 7.5807 7.1799 7.65965L2.58396 8.32294L5.90962 11.5426C6.30548 11.9259 6.48614 12.4781 6.39268 13.0193L5.60761 17.5655L9.71834 15.4191C10.2077 15.1636 10.7923 15.1636 11.2816 15.4191L15.3924 17.5655L14.6073 13.0193C14.5138 12.4781 14.6945 11.9259 15.0904 11.5426L18.416 8.32294L13.8201 7.65965C13.273 7.5807 12.8 7.2394 12.5553 6.74703L10.5 2.6107Z" fill="white"/>
</svg>
