<svg width="13" height="19" viewBox="0 0 13 19" fill="none" xmlns="http://www.w3.org/2000/svg">
<path d="M1.02996 15.8089C0.323351 16.4231 0.323348 17.4519 1.02995 18.0661L1.02997 18.0661C1.69539 18.6446 2.74908 18.6446 3.4145 18.0661C3.4145 18.0661 3.4145 18.0661 3.41451 18.0661L11.97 10.6286C12.6767 10.0144 12.6767 8.98559 11.97 8.37134C11.97 8.37134 11.97 8.37134 11.97 8.37133L3.4145 0.933832L3.08646 1.31118L3.41449 0.933823C2.74907 0.355394 1.69539 0.355394 1.02997 0.933823C0.323348 1.54807 0.323344 2.57687 1.02996 3.19112C1.02996 3.19112 1.02996 3.19112 1.02997 3.19113L8.28718 9.49998L1.02997 15.8088C1.02996 15.8088 1.02996 15.8088 1.02996 15.8089Z" fill="#D9D9D9" stroke="#D9D9D9"/>
</svg>
