<svg width="20" height="20" viewBox="0 0 20 20" fill="none" xmlns="http://www.w3.org/2000/svg">
<path d="M6.42859 6.07143C6.42859 6.66316 5.94889 7.14286 5.35716 7.14286C4.76544 7.14286 4.28574 6.66316 4.28574 6.07143C4.28574 5.4797 4.76544 5 5.35716 5C5.94889 5 6.42859 5.4797 6.42859 6.07143Z" fill="white"/>
<path d="M5.35716 11.4286C5.94889 11.4286 6.42859 10.9489 6.42859 10.3572C6.42859 9.76544 5.94889 9.28574 5.35716 9.28574C4.76544 9.28574 4.28574 9.76544 4.28574 10.3572C4.28574 10.9489 4.76544 11.4286 5.35716 11.4286Z" fill="white"/>
<path d="M6.42859 14.6429C6.42859 15.2346 5.94889 15.7143 5.35716 15.7143C4.76544 15.7143 4.28574 15.2346 4.28574 14.6429C4.28574 14.0512 4.76544 13.5714 5.35716 13.5714C5.94889 13.5714 6.42859 14.0512 6.42859 14.6429Z" fill="white"/>
<path d="M9.28573 5.71426C8.89124 5.71426 8.57144 6.03406 8.57144 6.42855C8.57144 6.82304 8.89124 7.14284 9.28573 7.14284H15C15.3944 7.14284 15.7143 6.82304 15.7143 6.42855C15.7143 6.03406 15.3944 5.71426 15 5.71426H9.28573Z" fill="white"/>
<path d="M8.57144 10.7143C8.57144 10.3199 8.89124 10 9.28573 10H15C15.3944 10 15.7143 10.3199 15.7143 10.7143C15.7143 11.1087 15.3944 11.4286 15 11.4286H9.28573C8.89124 11.4286 8.57144 11.1087 8.57144 10.7143Z" fill="white"/>
<path d="M9.28573 14.2857C8.89124 14.2857 8.57144 14.6056 8.57144 15C8.57144 15.3945 8.89124 15.7143 9.28573 15.7143H15C15.3944 15.7143 15.7143 15.3945 15.7143 15C15.7143 14.6056 15.3944 14.2857 15 14.2857H9.28573Z" fill="white"/>
<path d="M0 2.85714C0 1.27919 1.27919 0 2.85714 0H17.1429C18.7209 0 20 1.27919 20 2.85714V17.1429C20 18.7209 18.7209 20 17.1429 20H2.85714C1.27919 20 0 18.7209 0 17.1429V2.85714ZM2.85714 1.42857C2.06817 1.42857 1.42857 2.06817 1.42857 2.85714V17.1429C1.42857 17.9319 2.06817 18.5714 2.85714 18.5714H17.1429C17.9319 18.5714 18.5714 17.9319 18.5714 17.1429V2.85714C18.5714 2.06817 17.9319 1.42857 17.1429 1.42857H2.85714Z" fill="white"/>
</svg>
