<svg width="23" height="20" viewBox="0 0 23 20" fill="none" xmlns="http://www.w3.org/2000/svg">
<path d="M1.3268 1.33398C1.02129 1.64356 0.85 2.06303 0.85 2.5C0.85 2.93697 1.02129 3.35644 1.3268 3.66602C1.63238 3.97567 2.04727 4.15 2.48029 4.15H20.2438C20.6768 4.15 21.0917 3.97567 21.3973 3.66602C21.7028 3.35644 21.8741 2.93697 21.8741 2.5C21.8741 2.06303 21.7028 1.64356 21.3973 1.33398C21.0917 1.02433 20.6768 0.85 20.2438 0.85H2.48029C2.04727 0.85 1.63238 1.02433 1.3268 1.33398ZM1.3268 8.83398C1.02129 9.14356 0.85 9.56303 0.85 10C0.85 10.437 1.02129 10.8564 1.3268 11.166C1.63238 11.4757 2.04727 11.65 2.48029 11.65H20.2438C20.6768 11.65 21.0917 11.4757 21.3973 11.166C21.7028 10.8564 21.8741 10.437 21.8741 10C21.8741 9.56303 21.7028 9.14356 21.3973 8.83398C21.0917 8.52433 20.6768 8.35 20.2438 8.35H2.48029C2.04727 8.35 1.63238 8.52433 1.3268 8.83398ZM1.3268 16.334C1.02129 16.6436 0.85 17.063 0.85 17.5C0.85 17.937 1.02129 18.3564 1.3268 18.666C1.63238 18.9757 2.04727 19.15 2.48029 19.15H11.362C11.7951 19.15 12.21 18.9757 12.5155 18.666C12.821 18.3564 12.9923 17.937 12.9923 17.5C12.9923 17.063 12.821 16.6436 12.5155 16.334C12.21 16.0243 11.7951 15.85 11.362 15.85H2.48029C2.04727 15.85 1.63238 16.0243 1.3268 16.334Z" fill="white" stroke="white" stroke-width="0.3"/>
</svg>
