<svg width="19" height="20" viewBox="0 0 19 20" fill="none" xmlns="http://www.w3.org/2000/svg">
<path d="M10.5878 0.420158C9.97739 -0.140053 9.02261 -0.140053 8.41223 0.420158L0.743343 7.45885C0.26885 7.89436 0 8.5003 0 9.13419V17.6944C0 18.9677 1.06332 20 2.375 20H4.75C6.06168 20 7.125 18.9677 7.125 17.6944V13.8518C7.125 13.4274 7.47944 13.0833 7.91667 13.0833H11.0833C11.5206 13.0833 11.875 13.4274 11.875 13.8518V17.6944C11.875 18.9677 12.9384 20 14.25 20H16.625C17.9366 20 19 18.9677 19 17.6944V9.13419C19 8.5003 18.7312 7.89436 18.2566 7.45885L10.5878 0.420158Z" fill="white"/>
</svg>
