<svg width="25" height="23" viewBox="0 0 25 23" fill="none" xmlns="http://www.w3.org/2000/svg">
<path d="M13.1419 0.821374C13.1419 0.581863 13.0374 0.354295 12.8555 0.198252C12.6739 0.0422084 12.4332 -0.0267539 12.1963 0.00943552L0.697259 1.76716C0.296218 1.82847 0 2.17339 0 2.5791V20.4192C0 20.8248 0.296152 21.1698 0.697144 21.2312L12.1963 22.9906C12.433 23.0267 12.6739 22.9579 12.8555 22.8018C13.0372 22.6458 13.1419 22.4181 13.1419 22.1786V11.4992H21.6384L20.0008 12.9344C19.6601 13.2332 19.6254 13.752 19.9237 14.0935C20.2219 14.4349 20.74 14.4694 21.0809 14.1707L24.3609 11.2959C24.539 11.14 24.641 10.9146 24.641 10.6778C24.641 10.441 24.539 10.2156 24.3609 10.0597L21.0809 7.18487C20.74 6.88615 20.2219 6.92075 19.9237 7.26213C19.6254 7.60352 19.6601 8.12243 20.0008 8.42116L21.6386 9.85643H13.1419V0.821374ZM9.03504 13.5526C8.3546 13.5526 7.80299 13.0009 7.80299 12.3205C7.80299 11.6401 8.3546 11.0885 9.03504 11.0885C9.71548 11.0885 10.2671 11.6401 10.2671 12.3205C10.2671 13.0009 9.71548 13.5526 9.03504 13.5526Z" fill="white"/>
<path d="M15.606 21.3556H14.7846V13.1419H16.4273V20.5342C16.4273 20.9878 16.0595 21.3556 15.606 21.3556Z" fill="white"/>
<path d="M14.7846 8.21367V1.64273H15.606C16.0595 1.64273 16.4273 2.01047 16.4273 2.4641V8.21367H14.7846Z" fill="white"/>
</svg>
