<svg width="55" height="55" viewBox="0 0 55 55" fill="none" xmlns="http://www.w3.org/2000/svg">
<path d="M26.4426 0.0544773L27.0504 0C28.7103 0 30.0909 1.19613 30.3772 2.7735L30.4317 3.38129V23.6691H50.7194C52.3794 23.6691 53.7599 24.8652 54.0462 26.4426L54.1007 27.0504C54.1007 28.7103 52.9046 30.0909 51.3272 30.3772L50.7194 30.4317H30.4317V50.7194C30.4317 52.3794 29.2355 53.7599 27.6582 54.0462L27.0504 54.1007C25.3904 54.1007 24.0098 52.9046 23.7235 51.3272L23.6691 50.7194V30.4317H3.38129C1.72135 30.4317 0.340778 29.2355 0.0544773 27.6582L0 27.0504C0 25.3904 1.19613 24.0098 2.7735 23.7235L3.38129 23.6691H23.6691V3.38129C23.6691 1.72135 24.8652 0.340778 26.4426 0.0544773L27.0504 0L26.4426 0.0544773Z" fill="#5D5D63"/>
</svg>
