<svg width="21" height="20" viewBox="0 0 21 20" fill="none" xmlns="http://www.w3.org/2000/svg">
<path d="M18.3387 19.2677L18.356 19.2823L18.3745 19.2953C18.8187 19.6071 19.4328 19.5623 19.827 19.1629C20.2669 18.7172 20.2669 17.9971 19.827 17.5514L19.522 17.8524L19.827 17.5514L14.8977 12.5566C15.811 11.3008 16.3505 9.74907 16.3505 8.07143C16.3505 3.8961 13.0084 0.5 8.87195 0.5C4.73547 0.5 1.39343 3.8961 1.39343 8.07143C1.39343 12.2468 4.73547 15.6429 8.87195 15.6429C10.5278 15.6429 12.0582 15.0976 13.2968 14.1759L18.218 19.1629L18.2338 19.1789L18.2509 19.1933L18.3387 19.2677ZM3.66225 8.07143C3.66225 5.14595 6.00093 2.78571 8.87195 2.78571C11.743 2.78571 14.0816 5.14595 14.0816 8.07143C14.0816 10.9969 11.743 13.3571 8.87195 13.3571C6.00093 13.3571 3.66225 10.9969 3.66225 8.07143Z" fill="white" stroke="white"/>
</svg>
